# xmcd CD database file
#
# Track frame offsets:
#	150
#	19654
#	28025
#	46700
#	59774
#	79196
#	88094
#	102797
#	118150
#	138300
#	157275
#	171299
#	184017
#	194316
#
# Disc length: 2773 seconds
#
# Revision: 0
# Processed by: cddbd v1.5.2PL0 Copyright (c) Steve Scherf et al.
# Submitted via: CDex 1.51
#
DISCID=be0ad30e
DTITLE=Uncle Sinner - Ballads and Mental Breakdowns
DYEAR=2008
DGENRE=Country
TTITLE0=Poor Pilgrim of Sorrow
TTITLE1=Gospel Plow
TTITLE2=The Cuckoo
TTITLE3=When Jesus Comes
TTITLE4=Long Steel Rail
TTITLE5=Pearline
TTITLE6=Josh Thomas' Roustabout
TTITLE7=Jack of Diamonds
TTITLE8=Red Rocking Chair
TTITLE9=Pretty Polly
TTITLE10=Drama Queen Blues
TTITLE11=Old Rub Alcohol Blues
TTITLE12=Shady Grove
TTITLE13=You Got to Die
EXTD=YEAR: 2008
EXTT0=
EXTT1=
EXTT2=
EXTT3=
EXTT4=
EXTT5=
EXTT6=
EXTT7=
EXTT8=
EXTT9=
EXTT10=
EXTT11=
EXTT12=
EXTT13=
PLAYORDER=
